<svg xmlns="http://www.w3.org/2000/svg" width="920" height="520" viewBox="0 0 920 520">
<rect width="100%" height="100%" fill="#ffffff"/>
<text x="32" y="38" font-family="Segoe UI, Arial, sans-serif" font-size="22" font-weight="700" fill="#1F2430" text-anchor="start">Executive Sales Overview</text>
<text x="32" y="62" font-family="Segoe UI, Arial, sans-serif" font-size="13" font-weight="400" fill="#5B6472" text-anchor="start">Monthly revenue generated from cleaned sales data</text>
<line x1="72" y1="90.0" x2="882" y2="90.0" stroke="#ECF0F5"/>
<line x1="72" y1="177.0" x2="882" y2="177.0" stroke="#ECF0F5"/>
<line x1="72" y1="264.0" x2="882" y2="264.0" stroke="#ECF0F5"/>
<line x1="72" y1="351.0" x2="882" y2="351.0" stroke="#ECF0F5"/>
<line x1="72" y1="438.0" x2="882" y2="438.0" stroke="#ECF0F5"/>
<polyline points="72.0,284.6 95.1,207.1 118.3,272.1 141.4,275.6 164.6,250.4 187.7,308.6 210.9,90.0 234.0,218.0 257.1,272.3 280.3,305.9 303.4,278.5 326.6,211.3 349.7,365.8 372.9,374.2 396.0,359.9 419.1,182.4 442.3,310.7 465.4,401.7 488.6,318.7 511.7,158.7 534.9,406.3 558.0,357.2 581.1,365.0 604.3,273.3 627.4,318.7 650.6,438.0 673.7,164.6 696.9,347.3 720.0,269.4 743.1,217.9 766.3,232.8 789.4,260.6 812.6,230.3 835.7,250.0 858.9,426.2 882.0,163.0" fill="none" stroke="#2E4780" stroke-width="4" stroke-linejoin="round" stroke-linecap="round"/>
<circle cx="72.0" cy="284.6" r="4" fill="#386411"/>
<circle cx="141.4" cy="275.6" r="4" fill="#386411"/>
<circle cx="210.9" cy="90.0" r="4" fill="#386411"/>
<circle cx="280.3" cy="305.9" r="4" fill="#386411"/>
<circle cx="349.7" cy="365.8" r="4" fill="#386411"/>
<circle cx="419.1" cy="182.4" r="4" fill="#386411"/>
<circle cx="488.6" cy="318.7" r="4" fill="#386411"/>
<circle cx="558.0" cy="357.2" r="4" fill="#386411"/>
<circle cx="627.4" cy="318.7" r="4" fill="#386411"/>
<circle cx="696.9" cy="347.3" r="4" fill="#386411"/>
<circle cx="766.3" cy="232.8" r="4" fill="#386411"/>
<circle cx="835.7" cy="250.0" r="4" fill="#386411"/>
<text x="72.0" y="484" font-family="Segoe UI, Arial, sans-serif" font-size="11" font-weight="500" fill="#5B6472" text-anchor="middle">Jan 2023</text>
<text x="164.57142857142856" y="484" font-family="Segoe UI, Arial, sans-serif" font-size="11" font-weight="500" fill="#5B6472" text-anchor="middle">May 2023</text>
<text x="257.1428571428571" y="484" font-family="Segoe UI, Arial, sans-serif" font-size="11" font-weight="500" fill="#5B6472" text-anchor="middle">Sep 2023</text>
<text x="349.7142857142857" y="484" font-family="Segoe UI, Arial, sans-serif" font-size="11" font-weight="500" fill="#5B6472" text-anchor="middle">Jan 2024</text>
<text x="442.2857142857143" y="484" font-family="Segoe UI, Arial, sans-serif" font-size="11" font-weight="500" fill="#5B6472" text-anchor="middle">May 2024</text>
<text x="534.8571428571429" y="484" font-family="Segoe UI, Arial, sans-serif" font-size="11" font-weight="500" fill="#5B6472" text-anchor="middle">Sep 2024</text>
<text x="627.4285714285714" y="484" font-family="Segoe UI, Arial, sans-serif" font-size="11" font-weight="500" fill="#5B6472" text-anchor="middle">Jan 2025</text>
<text x="720.0" y="484" font-family="Segoe UI, Arial, sans-serif" font-size="11" font-weight="500" fill="#5B6472" text-anchor="middle">May 2025</text>
<text x="812.5714285714286" y="484" font-family="Segoe UI, Arial, sans-serif" font-size="11" font-weight="500" fill="#5B6472" text-anchor="middle">Sep 2025</text>
<text x="72" y="78" font-family="Segoe UI, Arial, sans-serif" font-size="11" font-weight="500" fill="#5B6472" text-anchor="start">57,128</text>
<text x="72" y="460" font-family="Segoe UI, Arial, sans-serif" font-size="11" font-weight="500" fill="#5B6472" text-anchor="start">13,312</text>
</svg>
